name Walk7.mot
datacolumns 19
datarows 17
range 1.64900000 1.66500000
endheader

                time	   L_ground_force_vx	   L_ground_force_vy	   L_ground_force_vz	   L_ground_force_px	   L_ground_force_py	   L_ground_force_pz	   R_ground_force_vx	   R_ground_force_vy	   R_ground_force_vz	   R_ground_force_px	   R_ground_force_py	   R_ground_force_pz	   L_ground_torque_x	   L_ground_torque_y	   L_ground_torque_z	   R_ground_torque_x	   R_ground_torque_y	   R_ground_torque_z	
          1.64900000	         18.70736497	        536.93250662	         35.59167102	         -0.32089779	          0.00000000	         -0.06653951	         -0.00342865	          0.15136524	          0.00787966	          0.00009363	          0.00000000	          0.00006603	          0.00000000	         -0.54884001	          0.00000000	          0.00000000	          0.00006856	          0.00000000	
          1.65000000	         19.02272644	        538.47792991	         35.63951982	         -0.32057402	          0.00000000	         -0.06655617	         -0.00404149	          0.16168765	          0.00811026	          0.00009866	          0.00000000	          0.00006952	          0.00000000	         -0.55500396	          0.00000000	          0.00000000	          0.00008106	          0.00000000	
          1.65100000	         19.33989274	        540.04360640	         35.69015353	         -0.32024994	          0.00000000	         -0.06657481	         -0.00469459	          0.17230151	          0.00832878	          0.00010376	          0.00000000	          0.00007304	          0.00000000	         -0.56097626	          0.00000000	          0.00000000	          0.00009439	          0.00000000	
          1.65200000	         19.65880239	        541.62902619	         35.74371934	         -0.31992554	          0.00000000	         -0.06659542	         -0.00538899	          0.18319008	          0.00853322	          0.00010890	          0.00000000	          0.00007658	          0.00000000	         -0.56675830	          0.00000000	          0.00000000	          0.00010856	          0.00000000	
          1.65300000	         19.97940332	        543.23368374	         35.80036097	         -0.31960081	          0.00000000	         -0.06661803	         -0.00612567	          0.19433391	          0.00872141	          0.00011407	          0.00000000	          0.00008014	          0.00000000	         -0.57235116	          0.00000000	          0.00000000	          0.00012360	          0.00000000	
          1.65400000	         20.30165304	        544.85707793	         35.86021790	         -0.31927574	          0.00000000	         -0.06664261	         -0.00690550	          0.20571070	          0.00889107	          0.00011925	          0.00000000	          0.00008370	          0.00000000	         -0.57775575	          0.00000000	          0.00000000	          0.00013953	          0.00000000	
          1.65500000	         20.62551848	        546.49871217	         35.92342457	         -0.31895031	          0.00000000	         -0.06666916	         -0.00772927	          0.21729511	          0.00903978	          0.00012442	          0.00000000	          0.00008725	          0.00000000	         -0.58297297	          0.00000000	          0.00000000	          0.00015636	          0.00000000	
          1.65600000	         20.95097565	        548.15809565	         35.99010957	         -0.31862451	          0.00000000	         -0.06669766	         -0.00859768	          0.22905860	          0.00916497	          0.00012955	          0.00000000	          0.00009076	          0.00000000	         -0.58800376	          0.00000000	          0.00000000	          0.00017411	          0.00000000	
          1.65700000	         21.27800879	        549.83474590	         36.06039520	         -0.31829834	          0.00000000	         -0.06672807	         -0.00951127	          0.24096921	          0.00926395	          0.00013463	          0.00000000	          0.00009423	          0.00000000	         -0.59284911	          0.00000000	          0.00000000	          0.00019279	          0.00000000	
          1.65800000	         21.60660933	        551.52819241	         36.13439744	         -0.31797179	          0.00000000	         -0.06676037	         -0.01047048	          0.25299144	          0.00933386	          0.00013962	          0.00000000	          0.00009763	          0.00000000	         -0.59751009	          0.00000000	          0.00000000	          0.00021241	          0.00000000	
          1.65900000	         21.93677490	        553.23798015	         36.21222618	         -0.31764488	          0.00000000	         -0.06679451	         -0.01147558	          0.26508600	          0.00937173	          0.00014450	          0.00000000	          0.00010094	          0.00000000	         -0.60198774	          0.00000000	          0.00000000	          0.00023297	          0.00000000	
          1.66000000	         22.26850843	        554.96367196	         36.29398548	         -0.31731761	          0.00000000	         -0.06683042	         -0.01252669	          0.27720967	          0.00937440	          0.00014924	          0.00000000	          0.00010414	          0.00000000	         -0.60628297	          0.00000000	          0.00000000	          0.00025449	          0.00000000	
          1.66100000	         22.60181779	        556.70484895	         36.37977345	         -0.31698999	          0.00000000	         -0.06686806	         -0.01362374	          0.28931508	          0.00933861	          0.00015379	          0.00000000	          0.00010721	          0.00000000	         -0.61039645	          0.00000000	          0.00000000	          0.00027695	          0.00000000	
          1.66200000	         22.93671577	        558.46110892	         36.46968179	         -0.31666205	          0.00000000	         -0.06690736	         -0.01476646	          0.30135055	          0.00926093	          0.00015814	          0.00000000	          0.00011012	          0.00000000	         -0.61432856	          0.00000000	          0.00000000	          0.00030036	          0.00000000	
          1.66300000	         23.27322041	        560.23206320	         36.56379496	         -0.31633379	          0.00000000	         -0.06694826	         -0.01595439	          0.31325985	          0.00913778	          0.00016224	          0.00000000	          0.00011285	          0.00000000	         -0.61807950	          0.00000000	          0.00000000	          0.00032470	          0.00000000	
          1.66400000	         23.61135553	        562.01733304	         36.66218920	         -0.31600526	          0.00000000	         -0.06699068	         -0.01718682	          0.32498210	          0.00896545	          0.00016605	          0.00000000	          0.00011537	          0.00000000	         -0.62164937	          0.00000000	          0.00000000	          0.00034996	          0.00000000	
          1.66500000	         23.95115122	        563.81654667	         36.76493164	         -0.31567648	          0.00000000	         -0.06703456	         -0.01846279	          0.33645149	          0.00874008	          0.00016953	          0.00000000	          0.00011764	          0.00000000	         -0.62503833	          0.00000000	          0.00000000	          0.00037613	          0.00000000	
